<svg width="530" height="323" viewBox="0 0 530 323" fill="none" xmlns="http://www.w3.org/2000/svg">
<path d="M7.19383 86.0912H418.659V283.611C418.659 301.437 433.133 315.931 450.968 315.931C490.764 315.931 523.161 283.543 523.161 243.732V73.4361C523.161 37.0769 493.594 7.50372 457.217 7.50372H39.149C21.5206 7.50372 7.19383 21.8363 7.19383 39.4646V86.0912ZM450.968 322.597C429.478 322.597 411.997 305.104 411.997 283.611V92.7565H0.531738V39.4646C0.531738 18.1691 17.8653 0.83844 39.149 0.83844H457.217C497.25 0.83844 529.824 33.4097 529.824 73.4361V243.732C529.824 287.225 494.449 322.597 450.968 322.597Z" fill="#6B184E"/>
</svg>
