<svg width="570" height="362" viewBox="0 0 570 362" fill="none" xmlns="http://www.w3.org/2000/svg">
<path d="M47.0199 85.265H435.318C448.105 85.265 458.465 95.6252 458.465 108.424V302.612C458.465 309.506 464.06 315.106 470.957 315.106C499.817 315.106 523.32 291.612 523.32 262.731V92.4402C523.32 67.0134 502.629 46.3318 477.202 46.3318H59.1561C52.4664 46.3318 47.0199 51.7721 47.0199 58.4648V85.265ZM470.957 361.425C438.544 361.425 412.141 335.039 412.141 302.612V131.587H23.8724C11.085 131.587 0.695312 121.212 0.695312 108.424V58.4648C0.695312 26.2388 26.9213 0.0129089 59.1561 0.0129089H477.202C528.174 0.0129089 569.644 41.4801 569.644 92.4402V262.731C569.644 317.146 525.392 361.425 470.957 361.425Z" fill="#6B184E"/>
</svg>
